PathFileType	4	(X/Y/Z)	E:/New_biomech_experiments/MICROGRAVITY MOCAP/Session 2024-06-22/Neeraj_FullAction_pp_22_06_24_t02 (1).trc																																																																											
DataRate	CameraRate	NumFrames	NumMarkers	Units	OrigDataRate	OrigDataStartFrame	OrigNumFrames																																																																							
120	120	13	19	m	120	1	7579																																																																							
Frame#	Time	RSHO			RBAK			LBHD			RUPA			PRSHO			RELB			CLAV			RFHD			LFHD			C7			RWRB			RFRM			RWRA			MRELB			DIA			STRN			ARSHO			RBHD			T10																						
		X1	Y1	Z1	X2	Y2	Z2	X3	Y3	Z3	X4	Y4	Z4	X5	Y5	Z5	X6	Y6	Z6	X7	Y7	Z7	X8	Y8	Z8	X9	Y9	Z9	X10	Y10	Z10	X11	Y11	Z11	X12	Y12	Z12	X13	Y13	Z13	X14	Y14	Z14	X15	Y15	Z15	X16	Y16	Z16	X17	Y17	Z17	X18	Y18	Z18	X19	Y19	Z19																				y19
																																																																														
1	0	-0.05336	0.07271	0.08732	-0.11312	-0.13139	0.00821	-0.04248	0.21753	-0.11799	-0.03754	0.04646	0.26515	-0.11189	-0.02144	0.07424	-0.04583	0.04948	0.39872	0.10364	-0.00789	-0.06967	0.05807	0.31125	0.02744	0.07178	0.32896	-0.07391	-0.09814	0.02996	-0.07535	-0.07594	0.02105	0.69458	-0.03759	0.05461	0.53723	0.02348	0.01777	0.6849	0.00456	-0.05935	0.40898	0.07795	-0.32266	0.10874	0.13939	-0.17078	-0.05331	0.06022	0.01703	0.08711	-0.06587	0.2151	-0.01523	-0.10977	-1.57535	-0.06048																				-1.57535
2	0.008	-0.05334	0.07269	0.08732	-0.11311	-0.13139	0.00823	-0.04242	0.21754	-0.11799	-0.03754	0.04647	0.26513	-0.11188	-0.02139	0.07426	-0.04581	0.04946	0.39876	0.10365	-0.00787	-0.06965	0.0581	0.31125	0.02742	0.07187	0.32895	-0.07391	-0.0981	0.02998	-0.07533	-0.07593	0.02109	0.6946	-0.0376	0.0546	0.53724	0.02349	0.01773	0.68491	0.00448	-0.05939	0.409	0.0779	-0.32265	0.10878	0.13937	-0.17082	-0.05328	0.06026	0.01701	0.08714	-0.06707	0.2156	-0.01468	-0.10978	-1.57533	-0.06049																				-1.57533
3	0.017	-0.05329	0.07268	0.08737	-0.1132	-0.13135	0.00819	-0.04239	0.21757	-0.11799	-0.03747	0.04651	0.26516	-0.11185	-0.02139	0.0743	-0.04566	0.04955	0.39883	0.10372	-0.00789	-0.06962	0.05814	0.31125	0.02743	0.07196	0.32897	-0.07386	-0.09806	0.03002	-0.07533	-0.07591	0.02109	0.69465	-0.03742	0.05426	0.53711	0.02351	0.01768	0.68495	0.00446	-0.05942	0.40902	0.07793	-0.32265	0.10882	0.13936	-0.17082	-0.05323	0.06027	0.017	0.08714	-0.06706	0.21559	-0.01472	-0.10979	-1.57533	-0.06051																				-1.57533
4	0.025	-0.05328	0.07271	0.08737	-0.11319	-0.13131	0.00818	-0.04233	0.21756	-0.11799	-0.03745	0.0465	0.2652	-0.11181	-0.02138	0.0743	-0.04576	0.0495	0.39881	0.10375	-0.00787	-0.0696	0.05821	0.31126	0.02748	0.07199	0.32896	-0.07385	-0.09802	0.03005	-0.07531	-0.07591	0.02113	0.69467	-0.03737	0.05395	0.53692	0.02353	0.01765	0.68498	0.00439	-0.05942	0.40905	0.07781	-0.32266	0.10886	0.13935	-0.17083	-0.0532	0.0603	0.01699	0.08718	-0.06572	0.2151	-0.01518	-0.1098	-1.57531	-0.06053																				-1.57531
5	0.033	-0.05323	0.07271	0.08741	-0.11424	-0.13087	0.0079	-0.0423	0.21754	-0.11797	-0.03746	0.04649	0.2652	-0.11179	-0.02135	0.07433	-0.04558	0.04956	0.39886	0.10377	-0.00787	-0.06959	0.05823	0.31127	0.02751	0.07209	0.32897	-0.07379	-0.09801	0.03008	-0.07532	-0.07588	0.02118	0.69471	-0.03749	0.0546	0.53733	0.02356	0.01767	0.68501	0.00441	-0.05944	0.40908	0.07785	-0.32266	0.10886	0.13936	-0.17083	-0.05316	0.06033	0.01701	0.08723	-0.06692	0.21562	-0.01466	-0.10978	-1.57532	-0.06053																				-1.57532
6	0.042	-0.0532	0.07274	0.08745	-0.11324	-0.13123	0.00818	-0.04222	0.21755	-0.11792	-0.03742	0.04651	0.26524	-0.11179	-0.0213	0.07435	-0.04583	0.05016	0.39975	0.10382	-0.00789	-0.06954	0.05831	0.31126	0.02754	0.07213	0.32899	-0.07375	-0.09798	0.03012	-0.07531	-0.07585	0.0212	0.69476	-0.03747	0.05461	0.53732	0.02357	0.01766	0.68504	0.00438	-0.05943	0.40909	0.07781	-0.32264	0.1089	0.13932	-0.1711	-0.0533	0.06034	0.01699	0.08723	-0.06569	0.21513	-0.01518	-0.10973	-1.57531	-0.06051																				-1.57531
7	0.05	-0.05318	0.07275	0.08747	-0.11424	-0.13081	0.00791	-0.04218	0.21759	-0.1179	-0.03718	0.04578	0.2652	-0.11178	-0.02126	0.07439	-0.04564	0.0495	0.39887	0.10383	-0.00785	-0.06952	0.05847	0.31137	0.0277	0.07217	0.32898	-0.07373	-0.09795	0.03013	-0.0753	-0.07584	0.02122	0.69476	-0.03743	0.05464	0.53737	0.0236	0.01768	0.68505	0.00441	-0.05946	0.4091	0.0778	-0.32261	0.10892	0.13937	-0.17083	-0.05312	0.06038	0.01701	0.08727	-0.06562	0.21512	-0.01516	-0.10972	-1.5753	-0.0605																				-1.5753
8	0.058	-0.05314	0.07276	0.0875	-0.11323	-0.13117	0.0082	-0.04211	0.21759	-0.11785	-0.03737	0.04652	0.26528	-0.11178	-0.02125	0.07441	-0.04566	0.04953	0.3989	0.10387	-0.00786	-0.0695	0.0585	0.31135	0.02774	0.07227	0.32899	-0.07367	-0.09791	0.03015	-0.07528	-0.07579	0.02126	0.69478	-0.03739	0.05464	0.53737	0.02362	0.01771	0.68506	0.00438	-0.05943	0.40915	0.07773	-0.32265	0.10892	0.13937	-0.17081	-0.05309	0.06041	0.01702	0.08729	-0.06559	0.21514	-0.01511	-0.10981	-1.57528	-0.06054																				-1.57528
9	0.067	-0.05308	0.07279	0.08754	-0.11427	-0.13078	0.00795	-0.04209	0.2176	-0.11782	-0.03739	0.04651	0.26527	-0.11175	-0.02123	0.07442	-0.04587	0.0502	0.39981	0.1039	-0.00786	-0.06947	0.05858	0.31137	0.02779	0.07248	0.32902	-0.07346	-0.09789	0.03017	-0.07527	-0.07575	0.02129	0.69479	-0.03737	0.05468	0.5374	0.02366	0.01775	0.68506	0.00438	-0.05941	0.40916	0.07774	-0.32263	0.10894	0.13939	-0.1708	-0.05307	0.06045	0.01703	0.08729	-0.06528	0.21565	-0.0148	-0.10993	-1.57527	-0.0606																				-1.57527
10	0.075	-0.05305	0.07281	0.08753	-0.11424	-0.13075	0.00796	-0.04206	0.21763	-0.11779	-0.03733	0.04656	0.26531	-0.11174	-0.02119	0.07444	-0.04583	0.05024	0.39984	0.10393	-0.00783	-0.06945	0.05864	0.31139	0.02781	0.07236	0.32901	-0.0736	-0.09784	0.03019	-0.07526	-0.0757	0.02133	0.69481	-0.03734	0.05472	0.53744	0.02369	0.01778	0.68506	0.00445	-0.05937	0.40919	0.07768	-0.32266	0.10896	0.13942	-0.17079	-0.05303	0.06046	0.01703	0.08733	-0.06655	0.21605	-0.0144	-0.10978	-1.57526	-0.06052																				-1.57526
11	0.083	-0.05301	0.07279	0.08758	-0.11422	-0.13073	0.00795	-0.04201	0.21764	-0.11776	-0.0374	0.04655	0.26532	-0.11169	-0.02117	0.07447	-0.04576	0.05026	0.39988	0.10397	-0.00784	-0.06944	0.0587	0.31139	0.02786	0.07238	0.32899	-0.07359	-0.0978	0.03021	-0.07524	-0.07565	0.02139	0.69484	-0.03725	0.05475	0.53745	0.02374	0.01782	0.68508	0.00446	-0.05933	0.40921	0.07764	-0.32264	0.10896	0.13944	-0.1708	-0.05303	0.06048	0.01704	0.08735	-0.06524	0.21572	-0.01478	-0.10939	-1.57524	-0.06033																				-1.57524
12	0.092	-0.053	0.07282	0.08757	-0.11421	-0.13071	0.008	-0.04198	0.21765	-0.11774	-0.03733	0.0466	0.26534	-0.11166	-0.02116	0.07449	-0.04555	0.04963	0.39899	0.10402	-0.00785	-0.06939	0.05873	0.31139	0.02785	0.07242	0.32899	-0.07355	-0.09775	0.03024	-0.0752	-0.07558	0.02146	0.69486	-0.03724	0.05478	0.53746	0.02378	0.01788	0.6851	0.00445	-0.05933	0.40923	0.07766	-0.32263	0.10897	0.13947	-0.17081	-0.05297	0.06054	0.01707	0.08737	-0.06646	0.21607	-0.01432	-0.10975	-1.5752	-0.06049																				-1.5752
13	0.1	-0.05293	0.07284	0.08759	-0.1142	-0.13072	0.00801	-0.04194	0.21764	-0.11772	-0.03732	0.04661	0.26536	-0.11159	-0.02116	0.07452	-0.04562	0.05056	0.40012	0.10409	-0.00785	-0.06937	0.05877	0.31139	0.02789	0.07268	0.32902	-0.07335	-0.09772	0.03026	-0.0752	-0.07557	0.02156	0.69492	-0.03707	0.05415	0.53707	0.02384	0.0179	0.68512	0.00448	-0.0593	0.40926	0.07765	-0.32263	0.10903	0.13949	-0.17081	-0.05296	0.06061	0.01708	0.08741	-0.06639	0.21607	-0.01427	-0.11127	-1.5752	-0.0612																				-1.5752
